<svg width="63" height="64" viewBox="0 0 63 64" fill="none" xmlns="http://www.w3.org/2000/svg">
<path d="M38 0L38.2666 9.65502C38.4939 17.8866 45.1134 24.5061 53.345 24.7334L63 25L53.345 25.2666C45.1134 25.4939 38.4939 32.1134 38.2666 40.345L38 50L37.7334 40.345C37.5061 32.1134 30.8866 25.4939 22.655 25.2666L13 25L22.655 24.7334C30.8866 24.5061 37.5061 17.8866 37.7334 9.65502L38 0Z" fill="white"/>
<path d="M16.5 31L16.676 37.3723C16.826 42.8052 21.1948 47.174 26.6277 47.324L33 47.5L26.6277 47.676C21.1948 47.826 16.826 52.1948 16.676 57.6277L16.5 64L16.324 57.6277C16.174 52.1948 11.8052 47.826 6.37231 47.676L0 47.5L6.37232 47.324C11.8052 47.174 16.174 42.8052 16.324 37.3723L16.5 31Z" fill="white"/>
</svg>
