<svg width="127" height="196" viewBox="0 0 127 196" fill="none" xmlns="http://www.w3.org/2000/svg">
<path fill-rule="evenodd" clip-rule="evenodd" d="M151.748 167.623L101.445 140.357V31.2949L151.748 4.0293L202.051 31.2949V140.357L151.748 167.623Z" stroke="#B0B7CB" stroke-opacity="0.44" stroke-width="1.48436"/>
<path fill-rule="evenodd" clip-rule="evenodd" d="M252.193 4.02929V58.5605L151.748 113.092L101.445 85.8261V31.2949L202.051 -23.2363L252.193 4.02929Z" stroke="#B0B7CB" stroke-opacity="0.44" stroke-width="1.48436"/>
<path fill-rule="evenodd" clip-rule="evenodd" d="M252.193 -50.502V4.02926L151.748 58.5605L101.445 31.2949V-23.2364L202.051 -77.7676L252.193 -50.502Z" stroke="#B0B7CB" stroke-opacity="0.44" stroke-width="1.48436"/>
<path fill-rule="evenodd" clip-rule="evenodd" d="M51.1406 4.02929V58.5605L151.746 113.092L202.049 85.8261V31.2949L101.443 -23.2363L51.1406 4.02929Z" stroke="#B0B7CB" stroke-opacity="0.44" stroke-width="1.48436"/>
<path fill-rule="evenodd" clip-rule="evenodd" d="M1 31.2949V85.8261L101.445 140.357L151.747 113.092V58.5605L51.1416 4.0293L1 31.2949Z" stroke="#B0B7CB" stroke-opacity="0.44" stroke-width="1.48436"/>
</svg>
