<svg width="166" height="197" viewBox="0 0 166 197" fill="none" xmlns="http://www.w3.org/2000/svg">
<path fill-rule="evenodd" clip-rule="evenodd" d="M-32.4894 322.459L33.3711 286.761V143.968L-32.4894 108.27L-98.3498 143.968V286.761L-32.4894 322.459Z" stroke="#E3E6EE" stroke-opacity="0.3" stroke-width="1.49"/>
<path fill-rule="evenodd" clip-rule="evenodd" d="M-163.999 108.27V179.666L-32.4894 251.063L33.3711 215.364V143.968L-98.3498 72.5713L-163.999 108.27Z" stroke="#E3E6EE" stroke-opacity="0.3" stroke-width="1.49"/>
<path fill-rule="evenodd" clip-rule="evenodd" d="M-163.999 36.8731V108.27L-32.4894 179.666L33.3711 143.968V72.5714L-98.3498 1.1748L-163.999 36.8731Z" stroke="#E3E6EE" stroke-opacity="0.3" stroke-width="1.49"/>
<path fill-rule="evenodd" clip-rule="evenodd" d="M99.2344 108.27V179.666L-32.4866 251.063L-98.347 215.364V143.968L33.3739 72.5713L99.2344 108.27Z" stroke="#E3E6EE" stroke-opacity="0.3" stroke-width="1.49"/>
<path fill-rule="evenodd" clip-rule="evenodd" d="M164.883 143.968V215.364L33.373 286.761L-32.4875 251.063V179.666L99.2334 108.27L164.883 143.968Z" stroke="#E3E6EE" stroke-opacity="0.3" stroke-width="1.49"/>
</svg>
